<svg width="25" height="25" viewBox="0 0 25 25" fill="none" xmlns="http://www.w3.org/2000/svg">
<path d="M12.6606 21.6606V7.66058C12.6606 6.55601 13.5561 5.66058 14.6606 5.66058H22.0606C22.392 5.66058 22.6606 5.92921 22.6606 6.26058V19.3749" stroke="#61567D" stroke-width="1.5" stroke-linecap="round"/>
<path d="M12.6606 21.6606V7.66058C12.6606 6.55601 11.7652 5.66058 10.6606 5.66058H3.26064C2.92927 5.66058 2.66064 5.92921 2.66064 6.26058V19.3749" stroke="#61567D" stroke-width="1.5" stroke-linecap="round"/>
<path d="M14.6606 19.6606L22.6606 19.6606" stroke="#61567D" stroke-width="1.5" stroke-linecap="round"/>
<path d="M10.6606 19.6606L2.66064 19.6606" stroke="#61567D" stroke-width="1.5" stroke-linecap="round"/>
<path d="M12.6606 21.6606C12.6606 20.556 13.5561 19.6606 14.6606 19.6606" stroke="#61567D" stroke-width="1.5" stroke-linecap="round" stroke-linejoin="round"/>
<path d="M12.6606 21.6606C12.6606 20.556 11.7652 19.6606 10.6606 19.6606" stroke="#61567D" stroke-width="1.5" stroke-linecap="round" stroke-linejoin="round"/>
</svg>
