<svg width="28" height="28" viewBox="0 0 28 28" fill="none" xmlns="http://www.w3.org/2000/svg">
<path d="M16.3333 23.9002V16.9335C16.3333 16.6021 16.602 16.3335 16.9333 16.3335H23.9C24.2314 16.3335 24.5 16.6021 24.5 16.9335V23.9002C24.5 24.2315 24.2314 24.5002 23.9 24.5002H16.9333C16.602 24.5002 16.3333 24.2315 16.3333 23.9002Z" stroke="white" stroke-width="1.5"/>
<path d="M3.5 23.9002V16.9335C3.5 16.6021 3.76863 16.3335 4.1 16.3335H11.0667C11.398 16.3335 11.6667 16.6021 11.6667 16.9335V23.9002C11.6667 24.2315 11.398 24.5002 11.0667 24.5002H4.1C3.76863 24.5002 3.5 24.2315 3.5 23.9002Z" stroke="white" stroke-width="1.5"/>
<path d="M16.3333 11.0667V4.1C16.3333 3.76863 16.602 3.5 16.9333 3.5H23.9C24.2314 3.5 24.5 3.76863 24.5 4.1V11.0667C24.5 11.398 24.2314 11.6667 23.9 11.6667H16.9333C16.602 11.6667 16.3333 11.398 16.3333 11.0667Z" stroke="white" stroke-width="1.5"/>
<path d="M3.5 11.0667V4.1C3.5 3.76863 3.76863 3.5 4.1 3.5H11.0667C11.398 3.5 11.6667 3.76863 11.6667 4.1V11.0667C11.6667 11.398 11.398 11.6667 11.0667 11.6667H4.1C3.76863 11.6667 3.5 11.398 3.5 11.0667Z" stroke="white" stroke-width="1.5"/>
</svg>
